{
  "accessors": [
    {
      "bufferView": 2,
      "componentType": 5126,
      "count": 410,
      "max": [
        1.8628259897232056,
        1.862826943397522,
        -0.6688299775123596
      ],
      "min": [
        -1.8628259897232056,
        -1.8628259897232056,
        -0.7539209723472595
      ],
      "type": "VEC3"
    },
    {
      "bufferView": 2,
      "byteOffset": 4920,
      "componentType": 5126,
      "count": 410,
      "max": [
        0.7066066861152649,
        0.7066066861152649,
        -0.7075693011283875
      ],
      "min": [
        -0.7066066861152649,
        -0.7066066861152649,
        -1.0
      ],
      "type": "VEC3"
    },
    {
      "bufferView": 1,
      "componentType": 5126,
      "count": 410,
      "max": [
        1.0,
        1.0
      ],
      "min": [
        0.0,
        0.0
      ],
      "type": "VEC2"
    },
    {
      "bufferView": 0,
      "componentType": 5125,
      "count": 1260,
      "type": "SCALAR"
    },
    {
      "bufferView": 2,
      "byteOffset": 9840,
      "componentType": 5126,
      "count": 17143,
      "max": [
        7.541318893432617,
        7.541326999664307,
        1.7090439796447754
      ],
      "min": [
        -7.54132080078125,
        -7.541316032409668,
        -6.719801902770996
      ],
      "type": "VEC3"
    },
    {
      "bufferView": 2,
      "byteOffset": 215556,
      "componentType": 5126,
      "count": 17143,
      "max": [
        1.0,
        1.0,
        1.0
      ],
      "min": [
        -1.0,
        -1.0,
        -1.0
      ],
      "type": "VEC3"
    },
    {
      "bufferView": 1,
      "byteOffset": 3280,
      "componentType": 5126,
      "count": 17143,
      "max": [
        1.0,
        1.0
      ],
      "min": [
        0.0,
        0.0
      ],
      "type": "VEC2"
    },
    {
      "bufferView": 0,
      "byteOffset": 5040,
      "componentType": 5125,
      "count": 87384,
      "type": "SCALAR"
    },
    {
      "bufferView": 2,
      "byteOffset": 421272,
      "componentType": 5126,
      "count": 3165,
      "max": [
        0.7202569842338562,
        0.7238799929618835,
        -0.10802300274372101
      ],
      "min": [
        -0.7202569842338562,
        -0.7238799929618835,
        -0.2903040051460266
      ],
      "type": "VEC3"
    },
    {
      "bufferView": 2,
      "byteOffset": 459252,
      "componentType": 5126,
      "count": 3165,
      "max": [
        1.0,
        1.0,
        1.0
      ],
      "min": [
        -1.0,
        -1.0,
        -1.0
      ],
      "type": "VEC3"
    },
    {
      "bufferView": 1,
      "byteOffset": 140424,
      "componentType": 5126,
      "count": 3165,
      "max": [
        1.0,
        1.0
      ],
      "min": [
        0.0,
        0.0
      ],
      "type": "VEC2"
    },
    {
      "bufferView": 0,
      "byteOffset": 354576,
      "componentType": 5125,
      "count": 17064,
      "type": "SCALAR"
    },
    {
      "bufferView": 2,
      "byteOffset": 497232,
      "componentType": 5126,
      "count": 1528,
      "max": [
        0.7073990106582642,
        0.707397997379303,
        0.0007910000276751816
      ],
      "min": [
        -0.707397997379303,
        -0.7074009776115417,
        -0.10766500234603882
      ],
      "type": "VEC3"
    },
    {
      "bufferView": 2,
      "byteOffset": 515568,
      "componentType": 5126,
      "count": 1528,
      "max": [
        0.9955778121948242,
        0.9955778121948242,
        1.0
      ],
      "min": [
        -0.9955778121948242,
        -0.9955778121948242,
        -1.0
      ],
      "type": "VEC3"
    },
    {
      "bufferView": 1,
      "byteOffset": 165744,
      "componentType": 5126,
      "count": 1528,
      "max": [
        1.0,
        1.0
      ],
      "min": [
        0.0,
        0.0
      ],
      "type": "VEC2"
    },
    {
      "bufferView": 0,
      "byteOffset": 422832,
      "componentType": 5125,
      "count": 6468,
      "type": "SCALAR"
    }
  ],
  "asset": {
    "extras": {
      "author": "jonver87 (https://sketchfab.com/jonver87)",
      "license": "CC-BY-4.0 (http://creativecommons.org/licenses/by/4.0/)",
      "source": "https://sketchfab.com/3d-models/rotiform-vce-05783beda2a74aa8981fb374e9088b4f",
      "title": "Rotiform VCE"
    },
    "generator": "Sketchfab-16.31.0",
    "version": "2.0"
  },
  "bufferViews": [
    {
      "buffer": 0,
      "byteLength": 448704,
      "name": "floatBufferViews",
      "target": 34963
    },
    {
      "buffer": 0,
      "byteLength": 177968,
      "byteOffset": 448704,
      "byteStride": 8,
      "name": "floatBufferViews",
      "target": 34962
    },
    {
      "buffer": 0,
      "byteLength": 533904,
      "byteOffset": 626672,
      "byteStride": 12,
      "name": "floatBufferViews",
      "target": 34962
    }
  ],
  "buffers": [
    {
      "byteLength": 1160576,
      "uri": "scene.bin"
    }
  ],
  "images": [
    {
      "uri": "textures/material_baseColor.jpeg"
    }
  ],
  "materials": [
    {
      "doubleSided": true,
      "name": "Material.001",
      "pbrMetallicRoughness": {
        "roughnessFactor": 0.3
      }
    },
    {
      "doubleSided": true,
      "name": "material",
      "pbrMetallicRoughness": {
        "baseColorTexture": {
          "index": 0
        },
        "metallicFactor": 0.0,
        "roughnessFactor": 0.1
      }
    },
    {
      "doubleSided": true,
      "name": "cap_plastic",
      "pbrMetallicRoughness": {
        "baseColorFactor": [
          0.0,
          0.0,
          0.0,
          1.0
        ],
        "metallicFactor": 0.0,
        "roughnessFactor": 0.3
      }
    },
    {
      "doubleSided": true,
      "name": "wheel.002",
      "pbrMetallicRoughness": {
        "baseColorFactor": [
          0.03,
          0.03,
          0.03,
          1.0
        ],
        "roughnessFactor": 0.3
      }
    }
  ],
  "meshes": [
    {
      "name": "Object_0",
      "primitives": [
        {
          "attributes": {
            "NORMAL": 1,
            "POSITION": 0,
            "TEXCOORD_0": 2
          },
          "indices": 3,
          "material": 0,
          "mode": 4
        }
      ]
    },
    {
      "name": "Object_1",
      "primitives": [
        {
          "attributes": {
            "NORMAL": 5,
            "POSITION": 4,
            "TEXCOORD_0": 6
          },
          "indices": 7,
          "material": 3,
          "mode": 4
        }
      ]
    },
    {
      "name": "Object_2",
      "primitives": [
        {
          "attributes": {
            "NORMAL": 9,
            "POSITION": 8,
            "TEXCOORD_0": 10
          },
          "indices": 11,
          "material": 2,
          "mode": 4
        }
      ]
    },
    {
      "name": "Object_3",
      "primitives": [
        {
          "attributes": {
            "NORMAL": 13,
            "POSITION": 12,
            "TEXCOORD_0": 14
          },
          "indices": 15,
          "material": 1,
          "mode": 4
        }
      ]
    }
  ],
  "nodes": [
    {
      "children": [
        1
      ],
      "matrix": [
        1.0,
        -2.832769343193999e-16,
        -8.755201825348181e-32,
        0.0,
        2.832769343193999e-16,
        1.0,
        4.440892098500626e-16,
        0.0,
        -2.465190328815662e-32,
        -4.440892098500626e-16,
        1.0,
        0.0,
        0.0,
        0.0,
        0.0,
        1.0
      ],
      "name": "Sketchfab_model"
    },
    {
      "children": [
        2,
        3,
        4,
        5
      ],
      "name": "Rotiform_VCE.obj.cleaner.materialmerger.gles"
    },
    {
      "mesh": 0,
      "name": "Object_2"
    },
    {
      "mesh": 1,
      "name": "Object_3"
    },
    {
      "mesh": 2,
      "name": "Object_4"
    },
    {
      "mesh": 3,
      "name": "Object_5"
    }
  ],
  "samplers": [
    {
      "magFilter": 9729,
      "minFilter": 9987,
      "wrapS": 10497,
      "wrapT": 10497
    }
  ],
  "scene": 0,
  "scenes": [
    {
      "name": "Sketchfab_Scene",
      "nodes": [
        0
      ]
    }
  ],
  "textures": [
    {
      "sampler": 0,
      "source": 0
    }
  ]
}
